<?xml version="1.0" encoding="UTF-8"?>
<svg version="1.1" xmlns="http://www.w3.org/2000/svg" width="512" height="512">
<path d="M0 0 C1.01545898 0.19867676 2.03091797 0.39735352 3.07714844 0.60205078 C52.9758035 10.58327711 96.53871388 34.88580573 133 70 C133.7940625 70.7528125 134.588125 71.505625 135.40625 72.28125 C140.75597303 77.46114055 145.38660506 83.16405541 150 89 C151.19109375 90.48306641 151.19109375 90.48306641 152.40625 91.99609375 C176.9776499 123.13801039 193.32468106 159.51240285 201.25 198.3125 C201.40114258 199.05121338 201.55228516 199.78992676 201.70800781 200.55102539 C202.18439803 203.02841582 202.60252786 205.50866222 203 208 C203.26707764 209.67364624 203.26707764 209.67364624 203.53955078 211.38110352 C205.19998488 223.01972268 205.3987437 234.56896253 205.375 246.3125 C205.37418427 247.83293915 205.37418427 247.83293915 205.37335205 249.38409424 C205.33347417 265.58121221 204.46747801 281.12508365 201 297 C200.78037598 298.02625488 200.56075195 299.05250977 200.33447266 300.10986328 C191.83138831 338.85817193 174.61772522 375.56726438 149 406 C148.57138672 406.51739746 148.14277344 407.03479492 147.70117188 407.56787109 C137.18164284 420.2564129 126.03816903 431.86528878 113 442 C111.52660156 443.18142578 111.52660156 443.18142578 110.0234375 444.38671875 C70.29759115 476.0035908 18.37047678 496.93437939 -32.79296875 497.203125 C-33.69337387 497.21018463 -34.59377899 497.21724426 -35.52146912 497.22451782 C-72.98691069 497.45161655 -72.98691069 497.45161655 -90 494 C-91.01545898 493.80132324 -92.03091797 493.60264648 -93.07714844 493.39794922 C-142.9758035 483.41672289 -186.53871388 459.11419427 -223 424 C-223.7940625 423.2471875 -224.588125 422.494375 -225.40625 421.71875 C-230.75597303 416.53885945 -235.38660506 410.83594459 -240 405 C-240.7940625 404.01128906 -241.588125 403.02257812 -242.40625 402.00390625 C-266.9776499 370.86198961 -283.32468106 334.48759715 -291.25 295.6875 C-291.47671387 294.57942993 -291.47671387 294.57942993 -291.70800781 293.44897461 C-292.18439803 290.97158418 -292.60252786 288.49133778 -293 286 C-293.17805176 284.88423584 -293.35610352 283.76847168 -293.53955078 282.61889648 C-295.19998488 270.98027732 -295.3987437 259.43103747 -295.375 247.6875 C-295.37445618 246.6738739 -295.37391235 245.6602478 -295.37335205 244.61590576 C-295.33347417 228.41878779 -294.46747801 212.87491635 -291 197 C-290.78037598 195.97374512 -290.56075195 194.94749023 -290.33447266 193.89013672 C-279.82149525 145.98280374 -255.85138923 104.15003587 -222 69 C-221.2471875 68.2059375 -220.494375 67.411875 -219.71875 66.59375 C-214.53885945 61.24402697 -208.83594459 56.61339494 -203 52 C-202.01128906 51.2059375 -201.02257812 50.411875 -200.00390625 49.59375 C-167.66655102 24.07913264 -130.33332447 7.86607287 -90 0 C-89.17274414 -0.16661133 -88.34548828 -0.33322266 -87.49316406 -0.50488281 C-59.91781494 -5.80488028 -27.50199116 -5.57960557 0 0 Z M-128.421875 138.51953125 C-142.27962171 154.40013696 -148.05997535 174.80998957 -146.74609375 195.67578125 C-146.01185584 204.89627329 -144.63005805 213.42334877 -141 222 C-140.67515625 222.83402344 -140.3503125 223.66804688 -140.015625 224.52734375 C-132.23251245 242.37774317 -114.18308777 253.91737606 -96.7890625 260.88574219 C-83.47189391 265.93728062 -69.60955732 269.28801797 -55.78588867 272.62866211 C-48.48597868 274.41543764 -41.35625595 276.42485027 -34.30078125 279.02734375 C-33.65425095 279.26272354 -33.00772064 279.49810333 -32.34159851 279.74061584 C-25.27106733 282.44832458 -19.46289135 286.07421729 -16 293 C-15.26649153 299.81115005 -15.22918038 305.65123796 -19.375 311.31640625 C-25.99749906 318.17769734 -34.80870782 320.88003894 -44.125 321.25 C-53.19945509 321.12716474 -62.07055052 318.88182195 -68.6171875 312.3984375 C-73.93359821 306.6241541 -74.87906952 301.84651335 -76 294 C-100.42 294 -124.84 294 -150 294 C-148.4609515 318.62477603 -142.64501722 340.70646562 -124.0859375 358.2578125 C-96.79294243 381.05308554 -62.79933779 386.36891083 -28.16845703 383.7890625 C-5.83655703 381.60266473 15.77488273 374.72412887 33 360 C33.59941406 359.54367187 34.19882812 359.08734375 34.81640625 358.6171875 C49.44391545 347.16388052 56.92957478 327.94086314 59.5859375 310.0546875 C61.90283066 289.7120717 58.97710842 269.20317696 46.21875 252.66015625 C27.34682823 230.03378526 -0.19147015 222.17665796 -27.71484375 214.9609375 C-28.37571991 214.78713562 -29.03659607 214.61333374 -29.71749878 214.43426514 C-32.95702931 213.58394572 -36.19848613 212.74622459 -39.44628906 211.92773438 C-64.80869349 205.38744273 -64.80869349 205.38744273 -72 195 C-73.61736378 190.14790867 -73.62098118 186.37133344 -71.5 181.6875 C-71.005 180.800625 -70.51 179.91375 -70 179 C-70 178.34 -70 177.68 -70 177 C-59.67940543 171.40967794 -48.72604443 169.38098889 -37.234375 172.25390625 C-30.77563417 174.4105837 -26.58547808 177.7925877 -23.0078125 183.546875 C-21.50785475 187.19793495 -20.85626032 191.14682854 -20 195 C3.43 195 26.86 195 51 195 C51.11567304 183.87098039 51.11567304 183.87098039 49.5 173.1875 C49.32839355 172.4361377 49.15678711 171.68477539 48.97998047 170.91064453 C46.19223548 159.74796121 40.73005182 148.56951446 33 140 C32.24460937 139.14148438 31.48921875 138.28296875 30.7109375 137.3984375 C13.70478214 119.18830654 -11.39075766 110.92906264 -35.93579102 109.8737793 C-69.58167645 109.08184521 -103.89124104 112.99975882 -128.421875 138.51953125 Z " fill="#000000" transform="translate(301,9)"/>
</svg>
